<?xml version="1.0" standalone="no"?>
<!DOCTYPE svg PUBLIC "-//W3C//DTD SVG 20010904//EN"
 "http://www.w3.org/TR/2001/REC-SVG-20010904/DTD/svg10.dtd">
<svg version="1.0" xmlns="http://www.w3.org/2000/svg"
 width="1280.000000pt" height="1280.000000pt" viewBox="0 0 1280.000000 1280.000000"
 preserveAspectRatio="xMidYMid meet">
<g transform="translate(0.000000,1280.000000) scale(0.100000,-0.100000)"
fill="#a00c0f" stroke="none">
<path d="M6245 12791 c-539 -88 -1047 -588 -1456 -1436 -73 -152 -120 -260
-214 -491 l-13 -32 -159 68 c-394 168 -796 288 -1146 341 -173 27 -469 36
-619 19 -943 -103 -1313 -885 -998 -2106 67 -259 171 -559 280 -805 27 -62 49
-113 47 -114 -1 -1 -67 -28 -147 -60 -954 -382 -1581 -893 -1762 -1435 -43
-128 -52 -188 -52 -340 0 -204 30 -326 131 -522 246 -476 860 -929 1718 -1268
61 -24 111 -44 112 -45 2 -1 -20 -52 -47 -114 -148 -334 -281 -754 -340 -1066
-50 -273 -64 -569 -35 -787 81 -615 468 -990 1093 -1058 149 -17 446 -8 617
18 355 55 816 194 1196 362 97 43 110 46 118 32 5 -10 25 -60 46 -112 248
-626 586 -1165 913 -1456 208 -186 384 -288 607 -350 93 -26 113 -29 270 -28
160 1 176 3 276 32 377 111 704 387 1027 868 163 244 343 595 477 934 21 52
41 102 46 112 8 14 20 11 111 -29 351 -155 794 -294 1103 -348 254 -44 538
-57 730 -34 314 38 560 148 748 334 162 161 264 365 320 640 19 97 22 140 22
355 -1 201 -5 270 -23 385 -56 360 -173 750 -343 1150 -37 88 -67 160 -66 161
1 0 52 20 112 44 190 75 434 188 599 277 697 375 1105 797 1227 1268 19 74 23
116 23 240 1 209 -29 329 -131 527 -243 470 -844 918 -1683 1254 -80 31 -146
59 -148 60 -2 1 5 19 16 41 33 66 143 342 198 500 104 296 179 613 210 883 20
179 15 467 -11 610 -95 529 -410 856 -931 967 -121 26 -144 27 -379 27 -208 0
-273 -4 -390 -22 -360 -57 -754 -174 -1148 -342 -87 -37 -159 -65 -161 -61 -2
3 -29 67 -59 141 -378 922 -832 1506 -1344 1729 -133 58 -243 82 -398 86 -77
2 -162 0 -190 -4z m365 -243 c343 -83 678 -366 983 -830 52 -79 115 -180 141
-226 96 -168 252 -496 327 -684 l18 -47 -222 -114 c-444 -229 -881 -496 -1319
-808 l-138 -98 -142 101 c-437 311 -955 626 -1386 842 l-152 76 19 47 c242
610 578 1143 906 1435 315 281 642 384 965 306z m-3444 -1493 c348 -37 730
-139 1154 -307 96 -39 177 -72 179 -74 2 -2 -25 -95 -62 -206 -105 -321 -180
-598 -256 -943 -50 -227 -118 -583 -137 -717 -3 -27 -9 -48 -13 -48 -17 0
-319 -53 -461 -81 -460 -90 -916 -208 -1290 -334 -74 -25 -139 -45 -145 -45
-13 0 -129 289 -196 489 -263 784 -277 1399 -40 1805 50 87 175 222 254 275
154 104 359 171 597 194 92 9 285 5 416 -8z m7019 -10 c491 -87 772 -369 861
-860 22 -123 25 -439 6 -595 -29 -228 -90 -495 -174 -750 -65 -202 -199 -540
-213 -540 -6 0 -71 20 -145 45 -448 151 -1019 291 -1569 385 -96 17 -177 30
-181 30 -4 0 -11 21 -14 48 -11 71 -63 361 -92 502 -88 437 -176 775 -301
1158 -37 111 -64 204 -62 206 15 13 343 138 503 191 288 96 562 161 781 184
55 6 116 13 135 15 75 9 379 -3 465 -19z m-5294 -555 c204 -102 450 -239 664
-368 145 -88 639 -414 688 -454 l28 -23 -93 -70 c-163 -123 -478 -377 -643
-519 -88 -76 -169 -141 -180 -145 -11 -5 -74 -11 -140 -15 -162 -10 -567 -51
-802 -81 -106 -14 -198 -25 -204 -25 -14 0 -9 37 42 305 61 319 146 674 230
965 29 99 145 453 168 512 13 34 1 38 242 -82z m3327 -115 c135 -403 227 -757
321 -1231 59 -297 67 -354 52 -354 -6 0 -98 11 -204 25 -243 31 -546 62 -770
79 -170 12 -176 13 -210 42 -19 16 -133 111 -252 211 -119 101 -309 254 -421
340 l-204 158 28 23 c55 47 552 373 722 475 346 206 844 467 861 450 4 -4 39
-102 77 -218z m-1707 -902 c194 -143 692 -543 686 -550 -2 -1 -115 2 -252 7
-138 5 -383 9 -545 9 -162 0 -407 -4 -545 -9 -137 -5 -250 -8 -251 -7 -11 11
771 627 796 627 5 0 55 -34 111 -77z m334 -683 c160 -5 345 -12 413 -16 l123
-7 117 -105 c339 -305 823 -787 1124 -1121 l145 -160 13 -263 c16 -337 16
-1099 0 -1436 l-13 -263 -146 -162 c-297 -329 -784 -814 -1123 -1119 l-117
-105 -103 -6 c-57 -4 -277 -12 -491 -18 -368 -11 -908 -3 -1266 18 l-103 6
-172 156 c-345 314 -805 776 -1108 1113 l-105 117 -13 263 c-16 338 -16 1098
0 1436 l13 263 146 162 c319 354 724 759 1079 1078 l162 146 137 8 c405 23
878 28 1288 15z m-1700 -77 c-287 -260 -883 -857 -1055 -1056 -18 -21 -34 -36
-36 -34 -5 4 30 360 56 572 29 241 56 424 64 432 16 16 808 113 986 121 24 1
23 -1 -15 -35z m2645 22 c224 -18 824 -95 836 -108 17 -16 133 -991 120 -1004
-2 -2 -18 13 -36 34 -170 197 -623 651 -1050 1052 l-45 42 50 -5 c28 -3 84 -8
125 -11z m-3783 -172 c-3 -27 -11 -84 -17 -128 -33 -245 -58 -486 -85 -814
-10 -124 -19 -189 -28 -200 -219 -252 -500 -597 -652 -799 l-70 -93 -23 28
c-50 61 -364 539 -468 713 -213 355 -474 854 -457 871 14 13 329 117 558 184
353 103 673 176 1165 269 41 7 77 14 79 15 2 0 1 -20 -2 -46z m5168 -29 c289
-57 578 -127 860 -209 229 -66 544 -171 558 -184 17 -17 -274 -571 -471 -896
-89 -147 -415 -641 -454 -687 l-23 -28 -157 203 c-86 112 -239 302 -340 421
-101 120 -195 233 -211 251 -26 32 -28 41 -42 217 -25 309 -43 486 -75 733
-12 88 -23 181 -27 206 l-5 46 78 -14 c44 -7 183 -34 309 -59z m-7046 -631
c223 -441 557 -986 865 -1412 l66 -90 -102 -143 c-314 -440 -624 -949 -837
-1375 l-81 -163 -52 21 c-557 219 -1041 514 -1348 819 -220 219 -346 425 -397
653 -21 95 -21 279 0 374 99 439 518 862 1217 1231 149 78 534 253 577 262 1
0 43 -80 92 -177z m8831 96 c162 -69 448 -214 600 -305 572 -342 909 -716 997
-1107 21 -94 21 -279 0 -373 -79 -351 -357 -687 -828 -1002 -247 -165 -600
-346 -916 -471 l-52 -20 -114 222 c-228 444 -537 945 -842 1366 l-65 91 91
128 c308 430 640 975 859 1411 l70 141 52 -21 c29 -11 96 -38 148 -60z m-7091
-1034 c-10 -295 -10 -835 0 -1130 5 -126 8 -231 7 -232 -6 -8 -508 621 -593
745 l-36 52 36 53 c85 123 587 752 593 744 1 -1 -2 -105 -7 -232z m5188 75
c134 -161 404 -506 460 -587 l36 -53 -36 -52 c-77 -112 -293 -384 -580 -732
-17 -20 -17 -18 -10 69 10 120 10 1316 0 1430 -5 54 -5 86 1 80 5 -5 63 -75
129 -155z m-5755 -961 c145 -188 293 -370 446 -549 59 -68 115 -134 125 -147
14 -17 21 -60 32 -205 25 -309 43 -486 75 -733 12 -88 23 -181 27 -206 l5 -46
-103 19 c-461 85 -774 156 -1134 259 -190 55 -564 179 -570 189 -7 11 167 360
273 550 168 301 419 701 604 963 58 81 73 97 82 85 6 -8 68 -88 138 -179z
m6527 -69 c173 -257 290 -445 432 -692 127 -223 342 -645 334 -658 -6 -10
-381 -134 -570 -189 -360 -103 -673 -174 -1134 -259 l-103 -19 5 46 c4 25 15
118 27 206 32 248 50 423 75 734 9 119 19 190 28 200 7 9 54 63 104 121 141
164 359 433 494 610 l124 161 23 -28 c12 -15 85 -120 161 -233z m-5473 -1150
c182 -191 525 -528 784 -769 l45 -42 -60 6 c-406 37 -936 102 -951 118 -13 13
-87 588 -109 852 -3 39 -8 90 -11 115 l-5 45 42 -45 c23 -25 143 -151 265
-280z m4370 74 c-39 -380 -88 -749 -100 -762 -17 -17 -989 -132 -1002 -119 -2
2 65 67 149 144 202 187 624 609 816 816 85 92 156 165 158 163 2 -1 -8 -110
-21 -242z m-6446 -479 c472 -159 1163 -324 1716 -410 41 -6 42 -7 49 -53 10
-71 62 -361 91 -502 88 -437 176 -775 301 -1158 37 -111 64 -204 62 -206 -2
-2 -83 -35 -180 -74 -565 -226 -1078 -336 -1484 -319 -449 19 -761 178 -942
481 -57 97 -114 257 -140 396 -24 132 -24 477 1 645 37 255 94 486 184 755 67
199 184 490 197 490 6 0 71 -20 145 -45z m8472 -147 c345 -875 410 -1582 187
-2031 -54 -108 -91 -160 -173 -243 -143 -144 -310 -226 -560 -276 -95 -19
-143 -23 -326 -22 -343 0 -632 52 -1055 190 -122 40 -513 189 -524 200 -2 2
22 84 53 181 32 98 64 196 71 218 47 143 155 567 204 800 12 55 26 118 31 140
12 53 87 467 95 527 7 46 8 47 49 53 552 86 1264 256 1711 409 72 24 137 45
146 45 11 1 37 -54 91 -191z m-6341 -323 c251 -31 544 -61 739 -75 85 -6 169
-13 185 -16 21 -3 82 -48 195 -145 170 -146 486 -401 648 -524 l93 -70 -28
-23 c-58 -48 -555 -374 -723 -475 -344 -205 -844 -467 -860 -450 -11 12 -112
313 -170 508 -76 254 -164 614 -224 919 -62 309 -72 376 -58 376 5 0 97 -11
203 -25z m4184 -27 c-30 -231 -190 -928 -286 -1247 -61 -202 -158 -493 -168
-504 -17 -17 -517 245 -871 457 -173 103 -650 416 -714 469 l-29 24 34 23
c124 88 563 442 783 632 58 51 100 79 120 82 17 3 126 12 241 21 215 16 589
56 750 79 50 8 103 14 118 15 l29 1 -7 -52z m-2410 -94 c242 -4 545 -2 714 5
162 5 296 9 297 8 8 -7 -616 -506 -743 -594 l-53 -36 -52 36 c-115 79 -677
526 -743 590 -7 6 20 7 75 3 47 -3 274 -9 505 -12z m342 -895 c436 -311 979
-642 1400 -853 l153 -76 -19 -47 c-220 -556 -522 -1053 -825 -1357 -276 -277
-544 -407 -836 -407 -292 0 -560 130 -836 407 -168 170 -356 422 -496 669 -96
169 -255 501 -329 688 l-19 47 141 70 c438 220 1016 572 1424 868 61 44 111
81 112 81 1 1 60 -40 130 -90z"/>
<path d="M6330 7633 c-320 -23 -602 -153 -816 -374 -93 -97 -150 -177 -208
-289 -96 -184 -138 -359 -138 -570 -1 -336 122 -632 361 -871 239 -239 533
-361 871 -361 338 0 632 122 871 361 239 239 362 535 361 871 0 326 -114 612
-336 847 -145 153 -327 268 -526 331 -130 41 -315 65 -440 55z"/>
</g>
</svg>
